<svg width="381" height="773" viewBox="0 0 381 773" fill="none" xmlns="http://www.w3.org/2000/svg">
<path d="M-0.00012207 143.027C-0.00012207 142.1 0.751374 141.348 1.67839 141.348H4.41702V167.851H1.67839C0.751374 167.851 -0.00012207 167.1 -0.00012207 166.173V143.027Z" fill="#2E3133"/>
<path opacity="0.4" d="M-0.00012207 143.027C-0.00012207 142.1 0.751374 141.348 1.67839 141.348H4.41702V167.851H1.67839C0.751374 167.851 -0.00012207 167.1 -0.00012207 166.173V143.027Z" fill="url(#paint0_linear_1_182)"/>
<path opacity="0.4" d="M-0.00012207 143.027C-0.00012207 142.1 0.751374 141.348 1.67839 141.348H4.41702V167.851H1.67839C0.751374 167.851 -0.00012207 167.1 -0.00012207 166.173V143.027Z" fill="url(#paint1_linear_1_182)"/>
<path opacity="0.4" d="M-0.00012207 143.027C-0.00012207 142.1 0.751374 141.348 1.67839 141.348H4.41702V167.851H1.67839C0.751374 167.851 -0.00012207 167.1 -0.00012207 166.173V143.027Z" fill="url(#paint2_linear_1_182)"/>
<g filter="url(#filter0_f_1_182)">
<path d="M1.10303 143.005C1.10303 142.7 1.35023 142.453 1.65517 142.453C1.96011 142.453 2.20731 142.7 2.20731 143.005V144.661H1.10303V143.005Z" fill="#9E9E9E"/>
</g>
<g filter="url(#filter1_f_1_182)">
<path d="M1.10303 143.557H2.20731V165.09C2.20731 165.395 1.96011 165.642 1.65517 165.642C1.35023 165.642 1.10303 165.395 1.10303 165.09V143.557Z" fill="#8B8B8B" fill-opacity="0.8"/>
</g>
<path d="M0 193.824C0 192.897 0.751496 192.145 1.67851 192.145H4.41714V246.255H1.67851C0.751496 246.255 0 245.504 0 244.577V193.824Z" fill="#2E3133"/>
<path opacity="0.4" d="M0 193.824C0 192.897 0.751496 192.145 1.67851 192.145H4.41714V246.255H1.67851C0.751496 246.255 0 245.504 0 244.577V193.824Z" fill="url(#paint3_linear_1_182)"/>
<path opacity="0.4" d="M0 193.824C0 192.897 0.751496 192.145 1.67851 192.145H4.41714V246.255H1.67851C0.751496 246.255 0 245.504 0 244.577V193.824Z" fill="url(#paint4_linear_1_182)"/>
<path opacity="0.4" d="M0 193.824C0 192.897 0.751496 192.145 1.67851 192.145H4.41714V246.255H1.67851C0.751496 246.255 0 245.504 0 244.577V193.824Z" fill="url(#paint5_linear_1_182)"/>
<g filter="url(#filter2_f_1_182)">
<path d="M1.10303 194.906C1.10303 194.601 1.35023 194.354 1.65517 194.354C1.96011 194.354 2.20731 194.601 2.20731 194.906V196.562H1.10303V194.906Z" fill="#9E9E9E"/>
</g>
<g filter="url(#filter3_f_1_182)">
<path d="M1.10303 195.458H2.20731V243.494C2.20731 243.799 1.96011 244.046 1.65517 244.046C1.35023 244.046 1.10303 243.799 1.10303 243.494V195.458Z" fill="#8B8B8B" fill-opacity="0.8"/>
</g>
<path d="M0 261.185C0 260.258 0.751496 259.506 1.67851 259.506H4.41714V313.616H1.67851C0.751496 313.616 0 312.865 0 311.938V261.185Z" fill="#2E3133"/>
<path opacity="0.4" d="M0 261.185C0 260.258 0.751496 259.506 1.67851 259.506H4.41714V313.616H1.67851C0.751496 313.616 0 312.865 0 311.938V261.185Z" fill="url(#paint6_linear_1_182)"/>
<path opacity="0.4" d="M0 261.185C0 260.258 0.751496 259.506 1.67851 259.506H4.41714V313.616H1.67851C0.751496 313.616 0 312.865 0 311.938V261.185Z" fill="url(#paint7_linear_1_182)"/>
<path opacity="0.4" d="M0 261.185C0 260.258 0.751496 259.506 1.67851 259.506H4.41714V313.616H1.67851C0.751496 313.616 0 312.865 0 311.938V261.185Z" fill="url(#paint8_linear_1_182)"/>
<g filter="url(#filter4_f_1_182)">
<path d="M1.10303 262.267C1.10303 261.963 1.35023 261.715 1.65517 261.715C1.96011 261.715 2.20731 261.963 2.20731 262.267V263.924H1.10303V262.267Z" fill="#9E9E9E"/>
</g>
<g filter="url(#filter5_f_1_182)">
<path d="M1.10303 262.82H2.20731V310.856C2.20731 311.161 1.96011 311.408 1.65517 311.408C1.35023 311.408 1.10303 311.161 1.10303 310.856V262.82Z" fill="#8B8B8B" fill-opacity="0.8"/>
</g>
<g clip-path="url(#clip0_1_182)">
<g clip-path="url(#clip1_1_182)">
<path d="M380.589 212.952C380.589 212.026 379.838 211.275 378.912 211.275H376.397V294.276H378.912C379.838 294.276 380.589 293.526 380.589 292.6V212.952Z" fill="#2F3233"/>
<path d="M379.75 213.371C379.75 213.14 379.563 212.952 379.331 212.952C379.1 212.952 378.912 213.14 378.912 213.371V214.629H379.75V213.371Z" fill="#9E9E9E"/>
<path d="M379.75 214.629H378.912V292.181C378.912 292.412 379.1 292.6 379.331 292.6C379.563 292.6 379.75 292.412 379.75 292.181V214.629Z" fill="#8B8B8B" fill-opacity="0.8"/>
</g>
</g>
<g clip-path="url(#clip2_1_182)">
<rect x="2.20764" width="375.457" height="773" rx="62.878" fill="#717576"/>
<g filter="url(#filter6_f_1_182)">
<rect x="3.31193" y="1.10429" width="373.249" height="770.791" rx="61.7737" stroke="#252726" stroke-width="2.20857"/>
</g>
<g filter="url(#filter7_f_1_182)">
<rect x="2.75978" y="0.552143" width="374.353" height="771.896" rx="62.3259" stroke="#1F2120" stroke-width="1.10429"/>
</g>
<g filter="url(#filter8_f_1_182)">
<rect x="8.282" y="6.07326" width="364.414" height="761.957" rx="57.3014" stroke="#313234" stroke-width="1.10429"/>
</g>
<rect x="8.282" y="6.42714" width="363.31" height="759.748" rx="56.4621" stroke="#343537" stroke-width="1.10429"/>
</g>
<g clip-path="url(#clip3_1_182)">
<rect x="8.28125" y="5.875" width="364.414" height="760.853" rx="57.0143" fill="white" fill-opacity="0.01"/>
<rect x="8.28064" y="5.87463" width="364.414" height="760.853" rx="57.0143" fill="#000100"/>
<g filter="url(#filter9_f_1_182)">
<rect x="9.93707" y="7.53106" width="361.101" height="757.54" rx="55.3578" stroke="black" stroke-width="3.31286"/>
</g>
</g>
<rect x="134.725" y="25.7452" width="100.49" height="27.6071" rx="13.8036" fill="#030303"/>
<rect x="209.816" y="30.1621" width="17.6686" height="17.6686" rx="8.83429" fill="#0E0B0F"/>
<rect x="214.233" y="34.5796" width="8.83429" height="8.83429" rx="4.41714" fill="#161424"/>
<rect x="216.441" y="36.788" width="5.52143" height="5.52143" rx="2.76071" fill="#0F0F2A"/>
<rect x="217.544" y="36.788" width="2.20857" height="2.20857" rx="1.10429" fill="#393752"/>
<defs>
<filter id="filter0_f_1_182" x="0.683829" y="142.033" width="1.94277" height="3.04701" filterUnits="userSpaceOnUse" color-interpolation-filters="sRGB">
<feFlood flood-opacity="0" result="BackgroundImageFix"/>
<feBlend mode="normal" in="SourceGraphic" in2="BackgroundImageFix" result="shape"/>
<feGaussianBlur stdDeviation="0.209599" result="effect1_foregroundBlur_1_182"/>
</filter>
<filter id="filter1_f_1_182" x="0.683829" y="143.138" width="1.94277" height="22.9241" filterUnits="userSpaceOnUse" color-interpolation-filters="sRGB">
<feFlood flood-opacity="0" result="BackgroundImageFix"/>
<feBlend mode="normal" in="SourceGraphic" in2="BackgroundImageFix" result="shape"/>
<feGaussianBlur stdDeviation="0.209599" result="effect1_foregroundBlur_1_182"/>
</filter>
<filter id="filter2_f_1_182" x="0.683829" y="193.934" width="1.94277" height="3.04701" filterUnits="userSpaceOnUse" color-interpolation-filters="sRGB">
<feFlood flood-opacity="0" result="BackgroundImageFix"/>
<feBlend mode="normal" in="SourceGraphic" in2="BackgroundImageFix" result="shape"/>
<feGaussianBlur stdDeviation="0.209599" result="effect1_foregroundBlur_1_182"/>
</filter>
<filter id="filter3_f_1_182" x="0.683829" y="195.039" width="1.94277" height="49.427" filterUnits="userSpaceOnUse" color-interpolation-filters="sRGB">
<feFlood flood-opacity="0" result="BackgroundImageFix"/>
<feBlend mode="normal" in="SourceGraphic" in2="BackgroundImageFix" result="shape"/>
<feGaussianBlur stdDeviation="0.209599" result="effect1_foregroundBlur_1_182"/>
</filter>
<filter id="filter4_f_1_182" x="0.683829" y="261.296" width="1.94277" height="3.04701" filterUnits="userSpaceOnUse" color-interpolation-filters="sRGB">
<feFlood flood-opacity="0" result="BackgroundImageFix"/>
<feBlend mode="normal" in="SourceGraphic" in2="BackgroundImageFix" result="shape"/>
<feGaussianBlur stdDeviation="0.209599" result="effect1_foregroundBlur_1_182"/>
</filter>
<filter id="filter5_f_1_182" x="0.683829" y="262.4" width="1.94277" height="49.427" filterUnits="userSpaceOnUse" color-interpolation-filters="sRGB">
<feFlood flood-opacity="0" result="BackgroundImageFix"/>
<feBlend mode="normal" in="SourceGraphic" in2="BackgroundImageFix" result="shape"/>
<feGaussianBlur stdDeviation="0.209599" result="effect1_foregroundBlur_1_182"/>
</filter>
<filter id="filter6_f_1_182" x="0.37371" y="-1.83393" width="379.125" height="776.668" filterUnits="userSpaceOnUse" color-interpolation-filters="sRGB">
<feFlood flood-opacity="0" result="BackgroundImageFix"/>
<feBlend mode="normal" in="SourceGraphic" in2="BackgroundImageFix" result="shape"/>
<feGaussianBlur stdDeviation="0.916966" result="effect1_foregroundBlur_1_182"/>
</filter>
<filter id="filter7_f_1_182" x="1.29068" y="-0.916964" width="377.291" height="774.834" filterUnits="userSpaceOnUse" color-interpolation-filters="sRGB">
<feFlood flood-opacity="0" result="BackgroundImageFix"/>
<feBlend mode="normal" in="SourceGraphic" in2="BackgroundImageFix" result="shape"/>
<feGaussianBlur stdDeviation="0.458482" result="effect1_foregroundBlur_1_182"/>
</filter>
<filter id="filter8_f_1_182" x="6.81289" y="4.60415" width="367.353" height="764.895" filterUnits="userSpaceOnUse" color-interpolation-filters="sRGB">
<feFlood flood-opacity="0" result="BackgroundImageFix"/>
<feBlend mode="normal" in="SourceGraphic" in2="BackgroundImageFix" result="shape"/>
<feGaussianBlur stdDeviation="0.458482" result="effect1_foregroundBlur_1_182"/>
</filter>
<filter id="filter9_f_1_182" x="5.07126" y="2.66526" width="370.833" height="767.272" filterUnits="userSpaceOnUse" color-interpolation-filters="sRGB">
<feFlood flood-opacity="0" result="BackgroundImageFix"/>
<feBlend mode="normal" in="SourceGraphic" in2="BackgroundImageFix" result="shape"/>
<feGaussianBlur stdDeviation="1.60469" result="effect1_foregroundBlur_1_182"/>
</filter>
<linearGradient id="paint0_linear_1_182" x1="2.20845" y1="141.348" x2="2.20845" y2="167.851" gradientUnits="userSpaceOnUse">
<stop/>
<stop offset="1" stop-opacity="0"/>
</linearGradient>
<linearGradient id="paint1_linear_1_182" x1="4.41702" y1="154.6" x2="-0.00012207" y2="154.6" gradientUnits="userSpaceOnUse">
<stop/>
<stop offset="1" stop-opacity="0"/>
</linearGradient>
<linearGradient id="paint2_linear_1_182" x1="2.20845" y1="141.348" x2="2.20845" y2="167.851" gradientUnits="userSpaceOnUse">
<stop stop-opacity="0"/>
<stop offset="1"/>
</linearGradient>
<linearGradient id="paint3_linear_1_182" x1="2.20857" y1="192.145" x2="2.20857" y2="246.255" gradientUnits="userSpaceOnUse">
<stop/>
<stop offset="1" stop-opacity="0"/>
</linearGradient>
<linearGradient id="paint4_linear_1_182" x1="4.41714" y1="219.2" x2="0" y2="219.2" gradientUnits="userSpaceOnUse">
<stop/>
<stop offset="1" stop-opacity="0"/>
</linearGradient>
<linearGradient id="paint5_linear_1_182" x1="2.20857" y1="192.145" x2="2.20857" y2="246.255" gradientUnits="userSpaceOnUse">
<stop stop-opacity="0"/>
<stop offset="1"/>
</linearGradient>
<linearGradient id="paint6_linear_1_182" x1="2.20857" y1="259.506" x2="2.20857" y2="313.616" gradientUnits="userSpaceOnUse">
<stop/>
<stop offset="1" stop-opacity="0"/>
</linearGradient>
<linearGradient id="paint7_linear_1_182" x1="4.41714" y1="286.561" x2="0" y2="286.561" gradientUnits="userSpaceOnUse">
<stop/>
<stop offset="1" stop-opacity="0"/>
</linearGradient>
<linearGradient id="paint8_linear_1_182" x1="2.20857" y1="259.506" x2="2.20857" y2="313.616" gradientUnits="userSpaceOnUse">
<stop stop-opacity="0"/>
<stop offset="1"/>
</linearGradient>
<clipPath id="clip0_1_182">
<rect width="5.52143" height="83.9257" fill="white" transform="translate(375.457 210.918)"/>
</clipPath>
<clipPath id="clip1_1_182">
<rect width="5.52143" height="83.9257" fill="white" transform="translate(375.457 210.918)"/>
</clipPath>
<clipPath id="clip2_1_182">
<rect x="2.20862" width="375.457" height="773" rx="62.878" fill="white"/>
</clipPath>
<clipPath id="clip3_1_182">
<rect x="8.28125" y="5.875" width="364.414" height="760.853" rx="57.0143" fill="white"/>
</clipPath>
</defs>
</svg>
