<svg width="80" height="80" viewBox="0 0 80 80" fill="none" xmlns="http://www.w3.org/2000/svg">
<g clip-path="url(#clip0_1_4173)">
<mask id="mask0_1_4173" style="mask-type:luminance" maskUnits="userSpaceOnUse" x="0" y="0" width="80" height="80">
<path fill-rule="evenodd" clip-rule="evenodd" d="M40 0C8 0 0 8 0 40C0 72 8 80 40 80C72 80 80 72 80 40C80 8 72 0 40 0Z" fill="white"></path>
</mask>
<g mask="url(#mask0_1_4173)">
<rect width="80" height="80" fill="#FFEECE"></rect>
<rect width="80" height="80" stroke="black" stroke-width="0.185185" stroke-linejoin="bevel"></rect>
<rect width="80" height="80" stroke="black" stroke-width="0.185185" stroke-linejoin="bevel"></rect>
<rect width="80" height="80" fill="#C13441"></rect>
<path fill-rule="evenodd" clip-rule="evenodd" d="M30.8881 63.8927C30.7035 64.2107 30.3854 64.3943 30.0143 64.3943C29.6433 64.3943 29.327 64.2126 29.1406 63.8927L23.2217 53.698C23.0371 53.3799 23.0371 53.0146 23.2217 52.6965C26.7021 46.704 30.1807 40.7115 33.6611 34.7172C33.8457 34.3991 34.1637 34.2156 34.5348 34.2156H59.0822C59.4514 34.2156 59.7695 34.3973 59.9559 34.7172C60.1405 35.0353 60.1405 35.4006 59.9559 35.7187L54.0371 45.9134C53.8524 46.2333 53.5344 46.415 53.1633 46.415H41.6181C41.2488 46.415 40.9308 46.5968 40.7443 46.9167C37.4595 52.5765 34.1729 58.2346 30.8881 63.8927ZM23.8048 39.661C23.6202 39.979 23.3021 40.1626 22.9311 40.1626C22.5618 40.1626 22.2438 39.9809 22.0573 39.661L16.1385 29.4663C15.9538 29.1482 15.9538 28.7829 16.1385 28.4648L23.0846 16.5016C23.2692 16.1818 23.5873 16 23.9565 16H62.6704C63.0396 16 63.3577 16.1818 63.5442 16.5016C63.7288 16.8197 63.7288 17.185 63.5442 17.5031L57.6253 27.6978C57.4407 28.0159 57.1226 28.1995 56.7515 28.1995H31.0398C30.6706 28.1995 30.3525 28.3812 30.166 28.7011C28.0456 32.3544 25.9234 36.0077 23.803 39.661H23.8048Z" fill="#FFF9EC"></path>
</g>
</g>
<defs>
<clipPath id="clip0_1_4173">
<rect width="80" height="80" fill="white"></rect>
</clipPath>
</defs>
</svg>