<svg width="448" height="57" viewBox="0 0 448 57" fill="none" xmlns="http://www.w3.org/2000/svg">
<rect y="13.8789" width="3.62529" height="28.6848" rx="1.81265" fill="#C13441" style="fill:#C13441;fill:color(display-p3 0.7569 0.2039 0.2549);fill-opacity:1;"></rect>
<rect x="6.625" y="3.70117" width="3.62529" height="49.0418" rx="1.81265" fill="#C13441" style="fill:#C13441;fill:color(display-p3 0.7569 0.2039 0.2549);fill-opacity:1;"></rect>
<rect x="13.25" y="7.40234" width="3.62529" height="41.6393" rx="1.81265" fill="#C13441" style="fill:#C13441;fill:color(display-p3 0.7569 0.2039 0.2549);fill-opacity:1;"></rect>
<rect x="19.875" y="17.5801" width="3.62529" height="21.2823" rx="1.81265" fill="#C13441" style="fill:#C13441;fill:color(display-p3 0.7569 0.2039 0.2549);fill-opacity:1;"></rect>
<rect x="26.5" y="13.8789" width="3.62529" height="28.6848" rx="1.81265" fill="#C13441" style="fill:#C13441;fill:color(display-p3 0.7569 0.2039 0.2549);fill-opacity:1;"></rect>
<rect x="33.125" y="16.6562" width="3.62529" height="23.1329" rx="1.81265" fill="#C13441" style="fill:#C13441;fill:color(display-p3 0.7569 0.2039 0.2549);fill-opacity:1;"></rect>
<rect x="39.75" width="3.62529" height="56.4443" rx="1.81265" fill="#C13441" style="fill:#C13441;fill:color(display-p3 0.7569 0.2039 0.2549);fill-opacity:1;"></rect>
<rect x="46.3789" y="13.8789" width="3.62529" height="28.6848" rx="1.81265" fill="#C13441" style="fill:#C13441;fill:color(display-p3 0.7569 0.2039 0.2549);fill-opacity:1;"></rect>
<rect x="53.0039" y="13.8789" width="3.62529" height="28.6848" rx="1.81265" fill="#C13441" style="fill:#C13441;fill:color(display-p3 0.7569 0.2039 0.2549);fill-opacity:1;"></rect>
<rect x="59.6289" y="13.8789" width="3.62529" height="28.6848" rx="1.81265" fill="#C13441" style="fill:#C13441;fill:color(display-p3 0.7569 0.2039 0.2549);fill-opacity:1;"></rect>
<rect x="66.2539" y="18.5059" width="3.62529" height="19.4317" rx="1.81265" fill="#C13441" style="fill:#C13441;fill:color(display-p3 0.7569 0.2039 0.2549);fill-opacity:1;"></rect>
<rect x="72.8789" y="15.7305" width="3.62529" height="24.9835" rx="1.81265" fill="#C13441" style="fill:#C13441;fill:color(display-p3 0.7569 0.2039 0.2549);fill-opacity:1;"></rect>
<rect x="79.5039" y="23.1328" width="3.62529" height="10.1785" rx="1.81265" fill="#C13441" style="fill:#C13441;fill:color(display-p3 0.7569 0.2039 0.2549);fill-opacity:1;"></rect>
<rect x="86.1289" y="15.7305" width="3.62529" height="24.9835" rx="1.81265" fill="#C13441" style="fill:#C13441;fill:color(display-p3 0.7569 0.2039 0.2549);fill-opacity:1;"></rect>
<rect x="92.7539" y="1.85156" width="3.62529" height="52.743" rx="1.81265" fill="#C13441" style="fill:#C13441;fill:color(display-p3 0.7569 0.2039 0.2549);fill-opacity:1;"></rect>
<rect x="99.3789" y="10.1777" width="3.62529" height="36.0873" rx="1.81265" fill="#C13441" style="fill:#C13441;fill:color(display-p3 0.7569 0.2039 0.2549);fill-opacity:1;"></rect>
<rect x="106.004" y="15.7305" width="3.62529" height="24.9835" rx="1.81265" fill="#C13441" style="fill:#C13441;fill:color(display-p3 0.7569 0.2039 0.2549);fill-opacity:1;"></rect>
<rect x="112.629" y="20.3574" width="3.62529" height="15.7304" rx="1.81265" fill="#C13441" style="fill:#C13441;fill:color(display-p3 0.7569 0.2039 0.2549);fill-opacity:1;"></rect>
<rect x="119.254" y="10.1777" width="3.62529" height="36.0873" rx="1.81265" fill="#C13441" style="fill:#C13441;fill:color(display-p3 0.7569 0.2039 0.2549);fill-opacity:1;"></rect>
<rect x="125.879" y="1.85156" width="3.62529" height="52.743" rx="1.81265" fill="#C13441" style="fill:#C13441;fill:color(display-p3 0.7569 0.2039 0.2549);fill-opacity:1;"></rect>
<rect x="132.504" y="10.1777" width="3.62529" height="36.0873" rx="1.81265" fill="#C13441" style="fill:#C13441;fill:color(display-p3 0.7569 0.2039 0.2549);fill-opacity:1;"></rect>
<rect x="139.133" y="10.1777" width="3.62529" height="36.0873" rx="1.81265" fill="#C13441" style="fill:#C13441;fill:color(display-p3 0.7569 0.2039 0.2549);fill-opacity:1;"></rect>
<rect x="145.758" y="7.40234" width="3.62529" height="41.6393" rx="1.81265" fill="#C13441" style="fill:#C13441;fill:color(display-p3 0.7569 0.2039 0.2549);fill-opacity:1;"></rect>
<rect x="152.383" y="1.85156" width="3.62529" height="52.743" rx="1.81265" fill="#C13441" style="fill:#C13441;fill:color(display-p3 0.7569 0.2039 0.2549);fill-opacity:1;"></rect>
<rect x="159.008" y="12.0293" width="3.62529" height="32.3861" rx="1.81265" fill="#C13441" style="fill:#C13441;fill:color(display-p3 0.7569 0.2039 0.2549);fill-opacity:1;"></rect>
<rect x="165.633" y="15.7305" width="3.62529" height="24.9835" rx="1.81265" fill="#C13441" style="fill:#C13441;fill:color(display-p3 0.7569 0.2039 0.2549);fill-opacity:1;"></rect>
<rect x="172.258" y="10.1777" width="3.62529" height="36.0873" rx="1.81265" fill="#C13441" style="fill:#C13441;fill:color(display-p3 0.7569 0.2039 0.2549);fill-opacity:1;"></rect>
<rect x="178.883" y="10.1777" width="3.62529" height="36.0873" rx="1.81265" fill="#C13441" style="fill:#C13441;fill:color(display-p3 0.7569 0.2039 0.2549);fill-opacity:1;"></rect>
<rect x="185.508" y="13.8789" width="3.62529" height="28.6848" rx="1.81265" fill="#C13441" style="fill:#C13441;fill:color(display-p3 0.7569 0.2039 0.2549);fill-opacity:1;"></rect>
<rect x="192.133" y="3.70117" width="3.62529" height="49.0418" rx="1.81265" fill="#1D1B20" fill-opacity="0.16" style="fill:#1D1B20;fill:color(display-p3 0.1137 0.1059 0.1255);fill-opacity:0.16;"></rect>
<rect x="198.758" y="7.40234" width="3.62529" height="41.6393" rx="1.81265" fill="#1D1B20" fill-opacity="0.16" style="fill:#1D1B20;fill:color(display-p3 0.1137 0.1059 0.1255);fill-opacity:0.16;"></rect>
<rect x="205.383" y="7.40234" width="3.62529" height="41.6393" rx="1.81265" fill="#1D1B20" fill-opacity="0.16" style="fill:#1D1B20;fill:color(display-p3 0.1137 0.1059 0.1255);fill-opacity:0.16;"></rect>
<rect x="212.008" y="7.40234" width="3.62529" height="41.6393" rx="1.81265" fill="#1D1B20" fill-opacity="0.16" style="fill:#1D1B20;fill:color(display-p3 0.1137 0.1059 0.1255);fill-opacity:0.16;"></rect>
<rect x="218.633" y="12.0293" width="3.62529" height="32.3861" rx="1.81265" fill="#1D1B20" fill-opacity="0.16" style="fill:#1D1B20;fill:color(display-p3 0.1137 0.1059 0.1255);fill-opacity:0.16;"></rect>
<rect x="225.262" y="12.0293" width="3.62529" height="32.3861" rx="1.81265" fill="#1D1B20" fill-opacity="0.16" style="fill:#1D1B20;fill:color(display-p3 0.1137 0.1059 0.1255);fill-opacity:0.16;"></rect>
<rect x="231.887" y="12.0293" width="3.62529" height="32.3861" rx="1.81265" fill="#1D1B20" fill-opacity="0.16" style="fill:#1D1B20;fill:color(display-p3 0.1137 0.1059 0.1255);fill-opacity:0.16;"></rect>
<rect x="238.512" y="13.8789" width="3.62529" height="28.6848" rx="1.81265" fill="#1D1B20" fill-opacity="0.16" style="fill:#1D1B20;fill:color(display-p3 0.1137 0.1059 0.1255);fill-opacity:0.16;"></rect>
<rect x="245.137" y="10.1777" width="3.62529" height="36.0873" rx="1.81265" fill="#1D1B20" fill-opacity="0.16" style="fill:#1D1B20;fill:color(display-p3 0.1137 0.1059 0.1255);fill-opacity:0.16;"></rect>
<rect x="251.762" y="10.1777" width="3.62529" height="36.0873" rx="1.81265" fill="#1D1B20" fill-opacity="0.16" style="fill:#1D1B20;fill:color(display-p3 0.1137 0.1059 0.1255);fill-opacity:0.16;"></rect>
<rect x="258.387" y="10.1777" width="3.62529" height="36.0873" rx="1.81265" fill="#1D1B20" fill-opacity="0.16" style="fill:#1D1B20;fill:color(display-p3 0.1137 0.1059 0.1255);fill-opacity:0.16;"></rect>
<rect x="265.012" width="3.62529" height="56.4443" rx="1.81265" fill="#1D1B20" fill-opacity="0.16" style="fill:#1D1B20;fill:color(display-p3 0.1137 0.1059 0.1255);fill-opacity:0.16;"></rect>
<rect x="271.637" width="3.62529" height="56.4443" rx="1.81265" fill="#1D1B20" fill-opacity="0.16" style="fill:#1D1B20;fill:color(display-p3 0.1137 0.1059 0.1255);fill-opacity:0.16;"></rect>
<rect x="278.262" width="3.62529" height="56.4443" rx="1.81265" fill="#1D1B20" fill-opacity="0.16" style="fill:#1D1B20;fill:color(display-p3 0.1137 0.1059 0.1255);fill-opacity:0.16;"></rect>
<rect x="284.887" y="13.8789" width="3.62529" height="28.6848" rx="1.81265" fill="#1D1B20" fill-opacity="0.16" style="fill:#1D1B20;fill:color(display-p3 0.1137 0.1059 0.1255);fill-opacity:0.16;"></rect>
<rect x="291.512" y="13.8789" width="3.62529" height="28.6848" rx="1.81265" fill="#1D1B20" fill-opacity="0.16" style="fill:#1D1B20;fill:color(display-p3 0.1137 0.1059 0.1255);fill-opacity:0.16;"></rect>
<rect x="298.137" y="13.8789" width="3.62529" height="28.6848" rx="1.81265" fill="#1D1B20" fill-opacity="0.16" style="fill:#1D1B20;fill:color(display-p3 0.1137 0.1059 0.1255);fill-opacity:0.16;"></rect>
<rect x="304.762" y="13.8789" width="3.62529" height="28.6848" rx="1.81265" fill="#1D1B20" fill-opacity="0.16" style="fill:#1D1B20;fill:color(display-p3 0.1137 0.1059 0.1255);fill-opacity:0.16;"></rect>
<rect x="311.391" y="13.8789" width="3.62529" height="28.6848" rx="1.81265" fill="#1D1B20" fill-opacity="0.16" style="fill:#1D1B20;fill:color(display-p3 0.1137 0.1059 0.1255);fill-opacity:0.16;"></rect>
<rect x="318.016" y="21.2832" width="3.62529" height="13.8798" rx="1.81265" fill="#1D1B20" fill-opacity="0.16" style="fill:#1D1B20;fill:color(display-p3 0.1137 0.1059 0.1255);fill-opacity:0.16;"></rect>
<rect x="324.641" y="21.2832" width="3.62529" height="13.8798" rx="1.81265" fill="#1D1B20" fill-opacity="0.16" style="fill:#1D1B20;fill:color(display-p3 0.1137 0.1059 0.1255);fill-opacity:0.16;"></rect>
<rect x="331.266" y="21.2832" width="3.62529" height="13.8798" rx="1.81265" fill="#1D1B20" fill-opacity="0.16" style="fill:#1D1B20;fill:color(display-p3 0.1137 0.1059 0.1255);fill-opacity:0.16;"></rect>
<rect x="337.891" y="19.4316" width="3.62529" height="17.581" rx="1.81265" fill="#1D1B20" fill-opacity="0.16" style="fill:#1D1B20;fill:color(display-p3 0.1137 0.1059 0.1255);fill-opacity:0.16;"></rect>
<rect x="344.516" y="24.9844" width="3.62529" height="6.47722" rx="1.81265" fill="#1D1B20" fill-opacity="0.16" style="fill:#1D1B20;fill:color(display-p3 0.1137 0.1059 0.1255);fill-opacity:0.16;"></rect>
<rect x="351.141" y="19.4316" width="3.62529" height="17.581" rx="1.81265" fill="#1D1B20" fill-opacity="0.16" style="fill:#1D1B20;fill:color(display-p3 0.1137 0.1059 0.1255);fill-opacity:0.16;"></rect>
<rect x="357.766" y="10.1777" width="3.62529" height="36.0873" rx="1.81265" fill="#1D1B20" fill-opacity="0.16" style="fill:#1D1B20;fill:color(display-p3 0.1137 0.1059 0.1255);fill-opacity:0.16;"></rect>
<rect x="364.391" y="15.7305" width="3.62529" height="24.9835" rx="1.81265" fill="#1D1B20" fill-opacity="0.16" style="fill:#1D1B20;fill:color(display-p3 0.1137 0.1059 0.1255);fill-opacity:0.16;"></rect>
<rect x="371.016" y="19.4316" width="3.62529" height="17.581" rx="1.81265" fill="#1D1B20" fill-opacity="0.16" style="fill:#1D1B20;fill:color(display-p3 0.1137 0.1059 0.1255);fill-opacity:0.16;"></rect>
<rect x="377.641" y="23.1328" width="3.62529" height="10.1785" rx="1.81265" fill="#1D1B20" fill-opacity="0.16" style="fill:#1D1B20;fill:color(display-p3 0.1137 0.1059 0.1255);fill-opacity:0.16;"></rect>
<rect x="384.266" y="15.7305" width="3.62529" height="24.9835" rx="1.81265" fill="#1D1B20" fill-opacity="0.16" style="fill:#1D1B20;fill:color(display-p3 0.1137 0.1059 0.1255);fill-opacity:0.16;"></rect>
<rect x="390.891" y="10.1777" width="3.62529" height="36.0873" rx="1.81265" fill="#1D1B20" fill-opacity="0.16" style="fill:#1D1B20;fill:color(display-p3 0.1137 0.1059 0.1255);fill-opacity:0.16;"></rect>
<rect x="397.52" y="15.7305" width="3.62529" height="24.9835" rx="1.81265" fill="#1D1B20" fill-opacity="0.16" style="fill:#1D1B20;fill:color(display-p3 0.1137 0.1059 0.1255);fill-opacity:0.16;"></rect>
<rect x="404.145" y="15.7305" width="3.62529" height="24.9835" rx="1.81265" fill="#1D1B20" fill-opacity="0.16" style="fill:#1D1B20;fill:color(display-p3 0.1137 0.1059 0.1255);fill-opacity:0.16;"></rect>
<rect x="410.77" y="13.8789" width="3.62529" height="28.6848" rx="1.81265" fill="#1D1B20" fill-opacity="0.16" style="fill:#1D1B20;fill:color(display-p3 0.1137 0.1059 0.1255);fill-opacity:0.16;"></rect>
<rect x="417.395" y="10.1777" width="3.62529" height="36.0873" rx="1.81265" fill="#1D1B20" fill-opacity="0.16" style="fill:#1D1B20;fill:color(display-p3 0.1137 0.1059 0.1255);fill-opacity:0.16;"></rect>
<rect x="424.02" y="16.6562" width="3.62529" height="23.1329" rx="1.81265" fill="#1D1B20" fill-opacity="0.16" style="fill:#1D1B20;fill:color(display-p3 0.1137 0.1059 0.1255);fill-opacity:0.16;"></rect>
<rect x="430.645" y="19.4316" width="3.62529" height="17.581" rx="1.81265" fill="#1D1B20" fill-opacity="0.16" style="fill:#1D1B20;fill:color(display-p3 0.1137 0.1059 0.1255);fill-opacity:0.16;"></rect>
<rect x="437.27" y="15.7305" width="3.62529" height="24.9835" rx="1.81265" fill="#1D1B20" fill-opacity="0.16" style="fill:#1D1B20;fill:color(display-p3 0.1137 0.1059 0.1255);fill-opacity:0.16;"></rect>
<rect x="443.895" y="15.7305" width="3.62529" height="24.9835" rx="1.81265" fill="#1D1B20" fill-opacity="0.16" style="fill:#1D1B20;fill:color(display-p3 0.1137 0.1059 0.1255);fill-opacity:0.16;"></rect>
</svg>