<svg width="68" height="68" viewBox="0 0 68 68" fill="none" xmlns="http://www.w3.org/2000/svg">
<rect width="68" height="68" rx="34" fill="white" fill-opacity="0.5" style="fill:white;fill-opacity:0.5;"></rect>
<path d="M50.1597 33.9992V42.6997C50.1597 43.6886 49.7668 44.637 49.0675 45.3363C48.3683 46.0356 47.4198 46.4284 46.4309 46.4284H43.9451C42.9561 46.4284 42.0077 46.0356 41.3084 45.3363C40.6092 44.637 40.2163 43.6886 40.2163 42.6997V36.4851C40.2163 35.4962 40.6092 34.5477 41.3084 33.8485C42.0077 33.1492 42.9561 32.7563 43.9451 32.7563H47.6194C47.3209 29.3726 45.7693 26.2224 43.2689 23.9232C40.7685 21.624 37.4995 20.3415 34.1027 20.3271H34.0017C30.5907 20.327 27.3028 21.6018 24.7835 23.9015C22.2643 26.2011 20.6956 29.3594 20.3855 32.7563H24.0583C25.0473 32.7563 25.9957 33.1492 26.695 33.8485C27.3943 34.5477 27.7871 35.4962 27.7871 36.4851V42.6997C27.7871 43.6886 27.3943 44.637 26.695 45.3363C25.9957 46.0356 25.0473 46.4284 24.0583 46.4284H21.5725C20.5836 46.4284 19.6352 46.0356 18.9359 45.3363C18.2366 44.637 17.8438 43.6886 17.8438 42.6997V33.9992C17.8472 30.7986 18.8002 27.6709 20.5821 25.012C22.3639 22.3532 24.8945 20.2828 27.8536 19.0628C30.8127 17.8429 34.0671 17.5282 37.2051 18.1587C40.3431 18.7892 43.2234 20.3365 45.4816 22.6048C46.9726 24.103 48.1532 25.8806 48.956 27.8359C49.7587 29.7912 50.1678 31.8856 50.1597 33.9992Z" fill="#C13441" style="fill:#C13441;fill:color(display-p3 0.7569 0.2039 0.2549);fill-opacity:1;"></path>
</svg>