<svg width="16" height="16" viewBox="0 0 16 16" fill="none" xmlns="http://www.w3.org/2000/svg">
<g clip-path="url(#clip0_635_2101)">
<path d="M3.504 0H12.496C14.4313 0 16 1.56875 16 3.504V12.496C16 14.4313 14.4313 16 12.496 16H3.504C1.56875 16 0 14.4313 0 12.496V3.504C0 1.56875 1.56875 0 3.504 0Z" fill="url(#paint0_linear_635_2101)"></path>
<path d="M5.1282 11.6128L5.1297 11.6133L4.58264 12.5608C4.38295 12.9067 3.9407 13.0252 3.59483 12.8255C3.24895 12.6258 3.13045 12.1836 3.33014 11.8377L3.73314 11.1397L3.77183 11.0727C3.84089 10.9735 4.01133 10.8021 4.35227 10.8343C4.35227 10.8343 5.15458 10.9214 5.21264 11.3384C5.21264 11.3384 5.22052 11.4756 5.1282 11.6128ZM12.8871 9.19283H11.1813C11.0651 9.18502 11.0144 9.14352 10.9944 9.1194L10.9931 9.11721L9.16708 5.95433L9.1647 5.9559L9.0552 5.7989C8.8757 5.5244 8.5907 6.2264 8.5907 6.2264C8.25039 7.00865 8.63902 7.89796 8.77445 8.16677L11.3108 12.5599C11.5105 12.9057 11.9527 13.0243 12.2986 12.8245C12.6445 12.6248 12.763 12.1826 12.5633 11.8367L11.9291 10.7382C11.9168 10.7116 11.8954 10.6393 12.0255 10.639H12.8871C13.2865 10.639 13.6103 10.3153 13.6103 9.9159C13.6103 9.51652 13.2865 9.19283 12.8871 9.19283ZM9.57377 10.1758C9.57377 10.1758 9.66483 10.639 9.31252 10.639H3.00633C2.60695 10.639 2.2832 10.3152 2.2832 9.91583C2.2832 9.51646 2.60695 9.19271 3.00633 9.19271H4.62758C4.88933 9.17758 4.95133 9.02646 4.95133 9.02646L4.95283 9.02721L7.06908 5.36171L7.06845 5.36158C7.10702 5.29077 7.07489 5.22383 7.06933 5.21327L6.37039 4.00271C6.1707 3.6569 6.2892 3.21458 6.63508 3.01496C6.98095 2.81533 7.4232 2.93371 7.62289 3.27958L7.94702 3.84102L8.27058 3.28058C8.47027 2.93477 8.91252 2.81621 9.25839 3.01596C9.60427 3.21571 9.72277 3.65783 9.52308 4.00371L6.5782 9.10433C6.56533 9.1354 6.56139 9.18415 6.6572 9.19271H8.41745L8.41783 9.2099C8.41783 9.2099 9.4352 9.22571 9.57377 10.1758Z" fill="white" style="fill:white;fill-opacity:1;"></path>
</g>
<defs>
<linearGradient id="paint0_linear_635_2101" x1="8" y1="0" x2="8" y2="16" gradientUnits="userSpaceOnUse">
<stop stop-color="#17C9FB" style="stop-color:#17C9FB;stop-color:color(display-p3 0.0902 0.7882 0.9843);stop-opacity:1;"></stop>
<stop offset="1" stop-color="#1A74E8" style="stop-color:#1A74E8;stop-color:color(display-p3 0.1020 0.4549 0.9098);stop-opacity:1;"></stop>
</linearGradient>
<clipPath id="clip0_635_2101">
<rect width="16" height="16" fill="white" style="fill:white;fill-opacity:1;"></rect>
</clipPath>
</defs>
</svg>