<svg width="325" height="78" viewBox="0 0 325 78" fill="none" xmlns="http://www.w3.org/2000/svg">
<path fill-rule="evenodd" clip-rule="evenodd" d="M23.9795 77.1383C23.6821 77.6506 23.1698 77.9463 22.5722 77.9463C21.9745 77.9463 21.4652 77.6535 21.1649 77.1383L11.6317 60.7182C11.3343 60.2059 11.3343 59.6175 11.6317 59.1052C17.2373 49.4534 22.8401 39.8016 28.4458 30.1469C28.7431 29.6346 29.2554 29.3389 29.8531 29.3389H69.3903C69.985 29.3389 70.4973 29.6316 70.7976 30.1469C71.0949 30.6592 71.0949 31.2476 70.7976 31.7599L61.2644 48.18C60.967 48.6952 60.4547 48.9879 59.8571 48.9879H41.2617C40.667 48.9879 40.1547 49.2807 39.8544 49.7959C34.5638 58.912 29.2701 68.0251 23.9795 77.1383ZM12.5708 38.1095C12.2735 38.6218 11.7612 38.9175 11.1635 38.9175C10.5688 38.9175 10.0565 38.6248 9.75622 38.1095L0.22302 21.6895C-0.0743402 21.1772 -0.0743402 20.5888 0.22302 20.0764L11.4108 0.807976C11.7082 0.292745 12.2205 0 12.8152 0H75.1697C75.7644 0 76.2767 0.292745 76.577 0.807976C76.8743 1.32028 76.8743 1.9087 76.577 2.421L67.0438 18.8411C66.7464 19.3534 66.2341 19.649 65.6365 19.649H24.2238C23.6291 19.649 23.1168 19.9418 22.8165 20.457C19.4013 26.3412 15.9831 32.2254 12.5679 38.1095H12.5708Z" fill="#C13442" style="fill:#C13442;fill:color(display-p3 0.7569 0.2039 0.2588);fill-opacity:1;"></path>
<path d="M201.491 26.0083C206.751 26.0083 211.492 27.2677 214.974 29.1938L209.344 42.603L208.973 42.5288C208.529 34.5281 204.973 31.194 200.676 31.1938C194.675 31.1938 192.157 35.7876 192.157 41.7144C192.157 48.0115 196.009 56.0122 204.899 56.0122C209.047 56.0122 212.011 54.753 213.863 51.4937L214.307 51.6411C213.714 60.8275 207.418 67.1245 198.972 67.1245C188.749 67.1245 181.71 59.1235 181.71 47.27C181.711 35.0464 189.786 26.0084 201.491 26.0083ZM277.042 26.0083C283.339 26.0083 292.303 29.3425 292.303 43.4185H270.967C272.079 51.7896 276.523 56.0864 283.117 56.0864C286.821 56.0864 289.562 54.9749 291.562 52.1597L292.155 52.3081C290.155 63.717 282.45 67.1245 276.523 67.1245C268.003 67.1243 259.632 60.3088 259.632 47.3442C259.632 34.8984 266.966 26.0085 277.042 26.0083ZM134.222 32.6763H133.851C130.888 22.1563 123.776 16.3774 116.145 16.3774H114.293V39.1216H115.405C121.035 39.1213 125.479 34.3799 126.813 29.9351H127.184V50.1597H126.813C125.479 45.7889 120.961 40.9734 115.405 40.9731H114.293V57.6421C114.293 62.4576 116.22 64.7541 121.257 65.6431V66.0142H94.0679V65.6431C96.5867 64.6059 98.3654 63.1986 98.7358 59.3462V22.23C98.7358 17.1183 97.0311 15.7843 93.9937 14.5249V14.1548H133.037L134.222 32.6763ZM153.031 60.0874C153.031 63.1244 154.587 64.7541 156.661 65.6431V66.0142H135.325V65.6431C137.399 64.7541 138.954 63.1245 138.955 60.0874V23.2671C138.955 20.452 137.917 18.6004 135.325 17.7114V17.3403L153.031 11.9321V60.0874ZM176.227 60.0874C176.227 63.1246 177.783 64.754 179.857 65.6431V66.0142H158.521V65.6431C160.595 64.7541 162.151 63.1246 162.151 60.0874V37.3433C162.151 33.7874 161.188 32.2314 158.521 31.4165V31.0464L176.227 26.0083V60.0874ZM232.725 60.8276C232.725 63.4947 233.689 64.9022 236.282 65.6431V66.0142H215.019V65.6431C217.093 64.7541 218.65 63.1246 218.65 60.0874V23.2671C218.65 20.452 217.612 18.6004 215.019 17.7114V17.3403L232.725 11.9321V60.8276ZM260.21 27.4897C256.58 29.7123 252.135 33.3425 250.061 35.0464L245.246 39.0474L257.322 60.4575C259.174 63.7168 260.877 64.9763 263.322 65.6431V66.0142H243.394L233.096 45.937L243.986 37.5659C247.32 34.973 248.357 33.2685 248.357 31.3423C248.357 29.1199 247.024 27.638 243.32 27.4897V27.1196H260.21V27.4897ZM324.917 39.4175H324.545C323.582 38.825 322.471 38.5288 320.175 38.5288C315.434 38.5288 312.248 40.7513 312.248 50.3081V60.0874C312.248 63.7172 314.619 65.0504 317.36 65.6431V66.0132H294.542V65.6431C296.616 64.7541 298.172 63.1245 298.172 60.0874V38.3062C298.172 34.3057 297.06 32.3056 294.542 31.4907V31.1206L311.655 26.0083V44.2329H312.1C312.619 30.8979 317.434 26.0083 323.805 26.0083H324.917V39.4175ZM275.412 28.4526C272.374 28.453 270.67 32.3801 270.67 39.0474C270.67 39.7881 270.671 40.4549 270.745 41.1216H279.931C279.931 31.3425 278.375 28.4526 275.412 28.4526ZM168.819 10.8218C172.967 10.8219 176.153 14.0812 176.153 18.1558C176.153 22.1562 172.967 25.4154 168.819 25.4155C164.67 25.4155 161.484 22.1563 161.484 18.1558C161.484 14.0811 164.67 10.8218 168.819 10.8218Z" fill="#22191B" style="fill:#22191B;fill:color(display-p3 0.1333 0.0980 0.1059);fill-opacity:1;"></path>
</svg>