<svg width="52" height="52" viewBox="0 0 52 52" fill="none" xmlns="http://www.w3.org/2000/svg">
<path fill-rule="evenodd" clip-rule="evenodd" d="M15.9863 51.4255C15.7881 51.7671 15.4466 51.9642 15.0481 51.9642C14.6497 51.9642 14.3101 51.769 14.1099 51.4255L7.75444 40.4788C7.5562 40.1373 7.5562 39.745 7.75444 39.4035C11.4916 32.9689 15.2267 26.5344 18.9639 20.0979C19.1621 19.7564 19.5036 19.5593 19.9021 19.5593H46.2602C46.6567 19.5593 46.9982 19.7544 47.1984 20.0979C47.3966 20.4395 47.3966 20.8317 47.1984 21.1733L40.8429 32.12C40.6447 32.4635 40.3032 32.6586 39.9047 32.6586H27.5078C27.1113 32.6586 26.7698 32.8538 26.5696 33.1973C23.0425 39.2747 19.5134 45.3501 15.9863 51.4255ZM8.38056 25.4064C8.18232 25.7479 7.8408 25.945 7.44236 25.945C7.04588 25.945 6.70435 25.7498 6.50415 25.4064L0.14868 14.4596C-0.0495601 14.1181 -0.0495601 13.7258 0.14868 13.3843L7.60723 0.538651C7.80547 0.195163 8.14699 0 8.54347 0H50.1131C50.5096 0 50.8511 0.195163 51.0513 0.538651C51.2496 0.880186 51.2496 1.27246 51.0513 1.614L44.6959 12.5607C44.4976 12.9022 44.1561 13.0994 43.7576 13.0994H16.1492C15.7528 13.0994 15.4112 13.2945 15.211 13.638C12.9342 17.5608 10.6554 21.4836 8.3786 25.4064H8.38056Z" fill="#000000"/>
</svg>
