<svg width="199" height="48" viewBox="0 0 199 48" fill="none" xmlns="http://www.w3.org/2000/svg">
<path fill-rule="evenodd" clip-rule="evenodd" d="M14.6222 47.0374C14.4409 47.3498 14.1285 47.5301 13.7641 47.5301C13.3996 47.5301 13.089 47.3516 12.9059 47.0374L7.09276 37.0248C6.91143 36.7124 6.91143 36.3536 7.09276 36.0412C10.511 30.1557 13.9274 24.2702 17.3457 18.383C17.527 18.0706 17.8394 17.8903 18.2038 17.8903H42.3128C42.6755 17.8903 42.9879 18.0688 43.171 18.383C43.3523 18.6954 43.3523 19.0542 43.171 19.3666L37.3578 29.3792C37.1765 29.6934 36.8641 29.8719 36.4997 29.8719H25.1606C24.7979 29.8719 24.4856 30.0504 24.3024 30.3646C21.0763 35.9234 17.8484 41.4804 14.6222 47.0374ZM7.66546 23.2385C7.48413 23.5508 7.17175 23.7311 6.80731 23.7311C6.44466 23.7311 6.13228 23.5526 5.94916 23.2385L0.135994 13.2258C-0.0453312 12.9134 -0.0453312 12.5546 0.135994 12.2422L6.95811 0.492688C7.13944 0.17851 7.45182 0 7.81447 0H45.837C46.1996 0 46.512 0.17851 46.6951 0.492688C46.8765 0.805081 46.8765 1.16389 46.6951 1.47628L40.882 11.4889C40.7007 11.8013 40.3883 11.9816 40.0238 11.9816H14.7712C14.4086 11.9816 14.0962 12.1601 13.9131 12.4743C11.8305 16.0623 9.7462 19.6504 7.66366 23.2385H7.66546Z" fill="#FFF9EC" style="fill:#FFF9EC;fill:color(display-p3 1.0000 0.9765 0.9255);fill-opacity:1;"></path>
<path d="M123.081 15.8591C126.288 15.8591 129.18 16.6271 131.303 17.8015L127.87 25.9783L127.644 25.9333C127.372 21.0545 125.204 19.0212 122.584 19.0212C118.925 19.0213 117.389 21.8225 117.389 25.4363C117.389 29.2762 119.738 34.155 125.159 34.155C127.689 34.155 129.496 33.3869 130.625 31.3992L130.896 31.49C130.535 37.0917 126.695 40.9314 121.545 40.9314C115.311 40.9313 111.02 36.0527 111.02 28.825C111.02 21.3711 115.943 15.8592 123.081 15.8591ZM169.15 15.8591C172.99 15.8591 178.457 17.8923 178.457 26.4753H165.446C166.124 31.5799 168.834 34.2007 172.854 34.2009C175.113 34.2009 176.785 33.5229 178.005 31.8064L178.366 31.8962C177.146 38.8532 172.448 40.9314 168.834 40.9314C163.639 40.9312 158.534 36.7753 158.534 28.8699C158.534 21.2806 163.007 15.8593 169.15 15.8591ZM82.0615 19.9255H81.8359C80.029 13.5107 75.692 9.98712 71.0391 9.98706H69.9092V23.8552H70.5869C74.0202 23.8552 76.7308 20.9642 77.5439 18.2537H77.7695V30.5867H77.5439C76.7308 27.9213 73.975 24.9851 70.5869 24.9851H69.9092V35.1492C69.9092 38.0855 71.0844 39.486 74.1562 40.0281V40.2537H57.5771V40.0281C59.1129 39.3956 60.197 38.5372 60.4229 36.1882V13.5554C60.4228 10.4385 59.3834 9.62514 57.5312 8.85718V8.63159H81.3389L82.0615 19.9255ZM93.5312 36.6404C93.5314 38.4921 94.4795 39.486 95.7441 40.0281V40.2537H82.7344V40.0281C83.9991 39.486 84.9481 38.4922 84.9482 36.6404V14.1882C84.9482 12.4716 84.3155 11.3417 82.7344 10.7996V10.574L93.5312 7.27612V36.6404ZM107.676 36.6404C107.676 38.4924 108.625 39.486 109.89 40.0281V40.2537H96.8789V40.0281C98.1437 39.486 99.0927 38.4923 99.0928 36.6404V22.7712C99.0927 20.6029 98.5052 19.6539 96.8789 19.157V18.9314L107.676 15.8591V36.6404ZM142.127 37.0916C142.127 38.7179 142.715 39.5763 144.296 40.0281V40.2537H131.33V40.0281C132.595 39.486 133.544 38.4923 133.544 36.6404V14.1882C133.544 12.4716 132.911 11.3417 131.33 10.7996V10.574L142.127 7.27612V37.0916ZM158.888 16.7634C156.674 18.1187 153.963 20.3318 152.698 21.3708L149.762 23.8103L157.125 36.866C158.254 38.8535 159.294 39.6215 160.784 40.0281V40.2537H148.633L142.354 28.0115L148.994 22.907C151.027 21.3259 151.659 20.2866 151.659 19.1121C151.659 17.7568 150.846 16.8538 148.587 16.7634V16.5369H158.888V16.7634ZM198.344 24.0359H198.117C197.53 23.6747 196.852 23.4939 195.452 23.4939C192.561 23.4939 190.618 24.8493 190.618 30.6765V36.6404C190.618 38.8535 192.064 39.6667 193.735 40.0281V40.2537H179.821V40.0281C181.086 39.486 182.035 38.4923 182.035 36.6404V23.3582C182.035 20.9189 181.357 19.6998 179.821 19.2029V18.9763L190.257 15.8591V26.9724H190.528C190.845 18.841 193.781 15.8591 197.666 15.8591H198.344V24.0359ZM168.157 17.3503C166.305 17.3503 165.266 19.7446 165.266 23.8103C165.266 24.262 165.265 24.6685 165.311 25.075H170.912C170.912 19.1125 169.964 17.3506 168.157 17.3503ZM103.158 6.59839C105.688 6.5984 107.631 8.58644 107.631 11.071C107.631 13.5105 105.688 15.4978 103.158 15.4978C100.628 15.4978 98.6855 13.5105 98.6855 11.071C98.6856 8.58643 100.628 6.59839 103.158 6.59839Z" fill="#FFF9EC" style="fill:#FFF9EC;fill:color(display-p3 1.0000 0.9765 0.9255);fill-opacity:1;"></path>
</svg>