<svg width="217" height="52" viewBox="0 0 217 52" fill="none" xmlns="http://www.w3.org/2000/svg">
<path fill-rule="evenodd" clip-rule="evenodd" d="M15.9863 51.4255C15.7881 51.7671 15.4466 51.9642 15.0481 51.9642C14.6497 51.9642 14.3101 51.769 14.1099 51.4255L7.75444 40.4788C7.5562 40.1373 7.5562 39.745 7.75444 39.4035C11.4916 32.9689 15.2267 26.5344 18.9639 20.0979C19.1621 19.7564 19.5036 19.5593 19.9021 19.5593H46.2602C46.6567 19.5593 46.9982 19.7544 47.1984 20.0979C47.3966 20.4395 47.3966 20.8317 47.1984 21.1733L40.8429 32.12C40.6447 32.4635 40.3032 32.6586 39.9047 32.6586H27.5078C27.1113 32.6586 26.7698 32.8538 26.5696 33.1973C23.0425 39.2747 19.5134 45.3501 15.9863 51.4255ZM8.38056 25.4064C8.18232 25.7479 7.8408 25.945 7.44236 25.945C7.04588 25.945 6.70435 25.7498 6.50415 25.4064L0.14868 14.4596C-0.0495601 14.1181 -0.0495601 13.7258 0.14868 13.3843L7.60723 0.538651C7.80547 0.195163 8.14699 0 8.54347 0H50.1131C50.5096 0 50.8511 0.195163 51.0513 0.538651C51.2496 0.880186 51.2496 1.27246 51.0513 1.614L44.6959 12.5607C44.4976 12.9022 44.1561 13.0994 43.7576 13.0994H16.1492C15.7528 13.0994 15.4112 13.2945 15.211 13.638C12.9342 17.5608 10.6554 21.4836 8.3786 25.4064H8.38056Z" fill="#FFF9EC" style="fill:#FFF9EC;fill:color(display-p3 1.0000 0.9765 0.9255);fill-opacity:1;"/>
<path d="M205.178 30.6175C205.178 28.2356 205.486 26.2718 206.101 24.7259C206.732 23.1643 207.576 22.0049 208.633 21.2477C209.69 20.4906 210.865 20.112 212.158 20.112C213.625 20.112 214.777 20.5774 215.613 21.508C216.449 22.4387 216.867 23.8031 216.867 25.6014C216.867 27.305 216.528 28.559 215.849 29.3635C215.171 30.1679 214.28 30.5702 213.176 30.5702C212.04 30.5702 211.18 30.302 210.597 29.7657C210.029 29.2136 209.745 28.4643 209.745 27.5179V26.5951C209.745 26.1377 209.642 25.8064 209.437 25.6014C209.232 25.3805 208.948 25.2701 208.585 25.2701C208.144 25.2701 207.741 25.4515 207.379 25.8143C207.016 26.1771 206.716 26.7213 206.48 27.4469C206.259 28.1725 206.148 29.0874 206.148 30.1916L205.178 30.6175ZM205.699 22.1469L206.148 27.092V37.5028C206.148 38.118 206.243 38.5834 206.432 38.8988C206.637 39.2143 206.969 39.4115 207.426 39.4904L209.153 39.7506C209.642 39.8137 209.997 39.9951 210.218 40.2948C210.439 40.5788 210.549 40.9416 210.549 41.3832C210.549 41.8565 210.391 42.235 210.076 42.519C209.761 42.8029 209.319 42.9449 208.751 42.9449H197.583C197.031 42.9449 196.597 42.8108 196.282 42.5426C195.966 42.2587 195.808 41.8722 195.808 41.3832C195.808 41.0047 195.895 40.6892 196.069 40.4368C196.258 40.1844 196.518 39.9557 196.85 39.7506L197.394 39.514C197.646 39.3878 197.835 39.1907 197.962 38.9225C198.088 38.6543 198.151 38.1811 198.151 37.5028V27.6125C198.151 27.0289 198.072 26.6267 197.914 26.4058C197.772 26.1692 197.559 25.9957 197.275 25.8853L196.542 25.7433C196.226 25.6014 195.982 25.42 195.808 25.1991C195.635 24.9783 195.548 24.6944 195.548 24.3473C195.548 23.953 195.666 23.6217 195.903 23.3536C196.14 23.0696 196.534 22.8251 197.086 22.6201L201.676 20.9402C202.307 20.6878 202.82 20.4985 203.214 20.3723C203.624 20.2461 203.971 20.183 204.255 20.183C204.666 20.183 204.981 20.325 205.202 20.6089C205.438 20.8928 205.604 21.4055 205.699 22.1469Z" fill="#FFF9EC" style="fill:#FFF9EC;fill:color(display-p3 1.0000 0.9765 0.9255);fill-opacity:1;"/>
<path d="M194.538 28.7719C194.538 29.8761 194.215 30.7279 193.568 31.3273C192.937 31.911 192.038 32.2028 190.871 32.2028H177.313V29.7184H185.003C185.949 29.7184 186.422 29.253 186.422 28.3224C186.422 26.7923 186.115 25.6487 185.5 24.8915C184.884 24.1344 184.127 23.7558 183.228 23.7558C182.503 23.7558 181.848 23.9688 181.264 24.3947C180.681 24.8206 180.215 25.4673 179.868 26.3349C179.537 27.1867 179.371 28.2751 179.371 29.6001C179.371 32.3763 180.018 34.4585 181.312 35.8466C182.621 37.2189 184.34 37.9051 186.47 37.9051C187.653 37.9051 188.725 37.6763 189.688 37.2189C190.666 36.7615 191.47 36.1463 192.101 35.3733C192.448 35.0579 192.724 34.8449 192.929 34.7345C193.15 34.6083 193.363 34.5531 193.568 34.5689C193.82 34.5689 194.033 34.6714 194.207 34.8765C194.396 35.0815 194.491 35.4049 194.491 35.8466C194.459 37.1874 194.01 38.4414 193.142 39.6087C192.275 40.7759 191.06 41.7224 189.498 42.448C187.953 43.1736 186.131 43.5364 184.033 43.5364C181.651 43.5364 179.561 43.0632 177.763 42.1167C175.964 41.1545 174.568 39.8216 173.575 38.118C172.597 36.4144 172.108 34.4348 172.108 32.1791C172.108 29.8446 172.581 27.7703 173.527 25.9563C174.489 24.1423 175.885 22.7147 177.715 21.6737C179.545 20.6326 181.753 20.112 184.34 20.112C186.454 20.112 188.268 20.4985 189.782 21.2714C191.312 22.0443 192.488 23.0854 193.308 24.3947C194.128 25.6881 194.538 27.1472 194.538 28.7719Z" fill="#FFF9EC" style="fill:#FFF9EC;fill:color(display-p3 1.0000 0.9765 0.9255);fill-opacity:1;"/>
<path d="M146.237 42.9449C145.685 42.9449 145.251 42.8108 144.936 42.5426C144.636 42.2587 144.486 41.8722 144.486 41.3832C144.486 41.0047 144.573 40.6892 144.747 40.4368C144.92 40.1686 145.173 39.9399 145.504 39.7506L146.072 39.514C146.324 39.3878 146.513 39.1907 146.64 38.9225C146.766 38.6543 146.829 38.1811 146.829 37.5028V14.9303C146.829 14.3466 146.75 13.9444 146.592 13.7236C146.434 13.5027 146.221 13.3292 145.953 13.203L145.22 13.0847C144.904 12.927 144.652 12.7377 144.463 12.5169C144.289 12.296 144.202 12.0121 144.202 11.6651C144.202 11.2707 144.321 10.9395 144.557 10.6713C144.794 10.4031 145.188 10.1665 145.74 9.96147L150.331 8.25788C151.009 7.98973 151.561 7.80044 151.987 7.69002C152.429 7.56383 152.862 7.50073 153.288 7.50073C153.809 7.50073 154.211 7.66636 154.495 7.99761C154.795 8.32887 154.944 8.75476 154.944 9.2753V37.5028C154.944 38.2284 155 38.7411 155.11 39.0408C155.221 39.3247 155.41 39.5377 155.678 39.6796L156.246 39.9399C156.782 40.2869 157.05 40.7602 157.05 41.3596C157.05 42.4164 156.514 42.9449 155.441 42.9449H146.237ZM152.46 32.747L161.262 25.554C161.641 25.2543 161.814 24.9704 161.783 24.7023C161.767 24.4341 161.554 24.1975 161.144 23.9924L160.528 23.7085C160.245 23.535 160.032 23.3378 159.89 23.117C159.763 22.8804 159.7 22.6043 159.7 22.2888C159.7 21.7841 159.858 21.3976 160.174 21.1294C160.505 20.8455 160.946 20.7036 161.499 20.7036H169.662C170.214 20.7036 170.64 20.8455 170.939 21.1294C171.255 21.3976 171.413 21.7762 171.413 22.2652C171.413 22.7068 171.271 23.1012 170.987 23.4482C170.703 23.7952 170.119 24.0634 169.236 24.2527C168.589 24.3789 167.99 24.5761 167.437 24.8442C166.885 25.0966 166.168 25.5698 165.284 26.2639L153.572 35.6809L152.46 32.747ZM161.451 26.5715L169.354 37.9287C169.654 38.3546 169.922 38.678 170.158 38.8988C170.395 39.1197 170.679 39.3405 171.01 39.5613C171.436 39.8768 171.767 40.1844 172.004 40.4841C172.241 40.768 172.359 41.0914 172.359 41.4542C172.359 41.9274 172.201 42.2981 171.886 42.5663C171.586 42.8187 171.16 42.9449 170.608 42.9449H161.096C160.623 42.9449 160.237 42.8108 159.937 42.5426C159.653 42.2587 159.511 41.8722 159.511 41.3832C159.511 41.0835 159.566 40.8311 159.677 40.6261C159.803 40.421 160 40.2317 160.268 40.0582L160.836 39.7979C161.278 39.5613 161.443 39.2932 161.333 38.9935C161.238 38.6938 161.002 38.2679 160.623 37.7158L156.057 31.0907L161.451 26.5715Z" fill="#FFF9EC" style="fill:#FFF9EC;fill:color(display-p3 1.0000 0.9765 0.9255);fill-opacity:1;"/>
<path d="M143.089 26.9027C143.089 27.9911 142.71 28.8902 141.953 29.6001C141.212 30.3099 140.226 30.6648 138.996 30.6648C137.781 30.6648 136.866 30.3336 136.251 29.6711C135.636 28.9928 135.328 28.1252 135.328 27.0684V26.3112C135.328 25.5225 135.076 24.8994 134.571 24.442C134.066 23.9845 133.38 23.7558 132.512 23.7558C131.755 23.7558 131.061 23.9845 130.43 24.442C129.815 24.8837 129.326 25.5383 128.963 26.4058C128.6 27.2734 128.419 28.3382 128.419 29.6001C128.419 31.3668 128.727 32.8495 129.342 34.0483C129.973 35.2472 130.825 36.1463 131.897 36.7457C132.97 37.3451 134.177 37.6448 135.517 37.6448C136.748 37.6448 137.789 37.4555 138.641 37.0769C139.492 36.6826 140.234 36.1226 140.865 35.397C141.228 35.0815 141.511 34.8686 141.717 34.7582C141.922 34.632 142.119 34.5768 142.308 34.5925C142.608 34.5925 142.837 34.7108 142.994 34.9474C143.152 35.1683 143.231 35.4995 143.231 35.9412C143.199 37.282 142.75 38.536 141.882 39.7033C141.015 40.8548 139.816 41.7855 138.286 42.4953C136.756 43.1894 134.981 43.5364 132.962 43.5364C130.691 43.5364 128.664 43.071 126.881 42.1404C125.114 41.2097 123.718 39.9084 122.693 38.2363C121.684 36.5485 121.179 34.5768 121.179 32.3211C121.179 29.9865 121.684 27.9044 122.693 26.0746C123.703 24.229 125.122 22.7778 126.952 21.721C128.798 20.6483 130.967 20.112 133.459 20.112C135.446 20.112 137.158 20.4196 138.593 21.0348C140.029 21.65 141.133 22.4781 141.906 23.5192C142.695 24.5445 143.089 25.6724 143.089 26.9027Z" fill="#FFF9EC" style="fill:#FFF9EC;fill:color(display-p3 1.0000 0.9765 0.9255);fill-opacity:1;"/>
<path d="M118.041 21.9576V37.5028C118.041 38.1654 118.104 38.6386 118.23 38.9225C118.372 39.1907 118.561 39.3878 118.798 39.514L119.342 39.7506C119.689 39.9399 119.949 40.1686 120.123 40.4368C120.296 40.6892 120.383 41.0047 120.383 41.3832C120.383 41.8722 120.225 42.2587 119.91 42.5426C119.61 42.8108 119.177 42.9449 118.609 42.9449H109.357C108.805 42.9449 108.371 42.8108 108.056 42.5426C107.74 42.2587 107.583 41.8722 107.583 41.3832C107.583 41.0047 107.669 40.6892 107.843 40.4368C108.016 40.1686 108.277 39.9399 108.624 39.7506L109.168 39.514C109.42 39.3721 109.61 39.167 109.736 38.8988C109.862 38.6307 109.925 38.1654 109.925 37.5028V27.6126C109.925 27.0289 109.846 26.6267 109.688 26.4059C109.547 26.1692 109.334 25.9957 109.05 25.8853L108.316 25.7433C108.001 25.5856 107.756 25.4042 107.583 25.1991C107.409 24.9783 107.322 24.6944 107.322 24.3473C107.322 23.953 107.441 23.6217 107.677 23.3536C107.914 23.0697 108.308 22.8252 108.86 22.6201L113.451 20.9165C114.129 20.6641 114.681 20.4748 115.107 20.3486C115.533 20.2225 115.959 20.1594 116.385 20.1594C116.921 20.1594 117.331 20.3329 117.615 20.6799C117.899 21.0112 118.041 21.437 118.041 21.9576ZM113.522 17.462C112.055 17.462 110.879 17.0913 109.996 16.3499C109.129 15.6086 108.695 14.6148 108.695 13.3687C108.695 12.1225 109.129 11.1366 109.996 10.411C110.879 9.68543 112.055 9.32263 113.522 9.32263C115.02 9.32263 116.203 9.68543 117.071 10.411C117.954 11.1366 118.396 12.1225 118.396 13.3687C118.396 14.6148 117.954 15.6086 117.071 16.3499C116.203 17.0913 115.02 17.462 113.522 17.462Z" fill="#FFF9EC" style="fill:#FFF9EC;fill:color(display-p3 1.0000 0.9765 0.9255);fill-opacity:1;"/>
<path d="M104.303 9.2753V37.5028C104.303 38.1653 104.366 38.6386 104.492 38.9225C104.634 39.1907 104.823 39.3878 105.06 39.514L105.604 39.7506C105.951 39.9399 106.211 40.1686 106.385 40.4368C106.558 40.6892 106.645 41.0047 106.645 41.3832C106.645 41.8722 106.487 42.2587 106.172 42.5426C105.872 42.8108 105.438 42.9449 104.871 42.9449H95.6191C95.067 42.9449 94.6332 42.8108 94.3177 42.5426C94.0022 42.2587 93.8445 41.8722 93.8445 41.3832C93.8445 41.0047 93.9313 40.6892 94.1048 40.4368C94.2783 40.1686 94.5386 39.9399 94.8856 39.7506L95.4298 39.514C95.6822 39.3878 95.8715 39.1907 95.9976 38.9225C96.1238 38.6543 96.1869 38.1811 96.1869 37.5028V14.9303C96.1869 14.3466 96.1081 13.9444 95.9503 13.7236C95.8084 13.5027 95.5954 13.3292 95.3115 13.203L94.578 13.0847C94.2625 12.927 94.018 12.7377 93.8445 12.5169C93.671 12.296 93.5842 12.0121 93.5842 11.6651C93.5842 11.2707 93.7025 10.9395 93.9391 10.6713C94.1758 10.4031 94.5622 10.1665 95.0985 9.96147L99.6888 8.25788C100.367 7.98973 100.919 7.80044 101.345 7.69002C101.787 7.56383 102.22 7.50073 102.646 7.50073C103.183 7.50073 103.593 7.66636 103.877 7.99761C104.161 8.32887 104.303 8.75476 104.303 9.2753Z" fill="#FFF9EC" style="fill:#FFF9EC;fill:color(display-p3 1.0000 0.9765 0.9255);fill-opacity:1;"/>
<path d="M84.2189 9.81949C84.913 9.81949 85.4966 9.74851 85.9699 9.60655C86.4588 9.44881 86.9084 9.29896 87.3185 9.15699C87.7287 8.99925 88.1545 8.92038 88.5962 8.92038C89.3849 8.92038 89.9686 9.13333 90.3471 9.55923C90.7415 9.98512 91.0727 10.6634 91.3409 11.5941L93.0445 17.7932C93.2022 18.3453 93.1233 18.8107 92.8079 19.1892C92.5082 19.5678 92.0823 19.8044 91.5302 19.8991C91.1043 19.9779 90.6784 19.9306 90.2525 19.7571C89.8424 19.5836 89.4874 19.1735 89.1877 18.5267C88.5726 17.1071 87.9653 16.0502 87.3659 15.3562C86.7822 14.6621 86.1513 14.2047 85.473 13.9838C84.8105 13.7472 84.006 13.6289 83.0596 13.6289H78.5166V36.864C78.5166 37.4318 78.6271 37.8577 78.8479 38.1417C79.0845 38.4098 79.4237 38.6149 79.8653 38.7569L81.4979 39.2301C81.9711 39.3878 82.3103 39.6165 82.5154 39.9162C82.7362 40.2159 82.8466 40.6103 82.8466 41.0993C82.8466 41.6671 82.6652 42.1167 82.3024 42.448C81.9554 42.7792 81.4269 42.9448 80.7171 42.9448H68.1058C67.396 42.9448 66.8676 42.7792 66.5205 42.448C66.1735 42.1167 66 41.6671 66 41.0993C66 40.1844 66.4338 39.5219 67.3014 39.1118L68.2478 38.7569C68.6579 38.5833 68.9734 38.3625 69.1942 38.0943C69.4151 37.8262 69.5255 37.4239 69.5255 36.8876V15.8767C69.5255 15.3404 69.4151 14.9381 69.1942 14.67C68.9734 14.4018 68.6579 14.181 68.2478 14.0075L67.3014 13.6526C66.4338 13.2424 66 12.5799 66 11.6651C66 11.0814 66.1735 10.6319 66.5205 10.3164C66.8676 9.98512 67.396 9.81949 68.1058 9.81949H84.2189ZM74.7546 25.625H82.468C83.3987 25.625 84.0297 25.4436 84.3609 25.0808C84.6922 24.718 84.9682 24.0949 85.189 23.2116C85.3152 22.7384 85.5203 22.3914 85.8042 22.1705C86.1039 21.9497 86.451 21.8314 86.8453 21.8156C87.776 21.7998 88.3596 22.2967 88.5962 23.3062L90.1578 29.7657C90.3156 30.4124 90.2998 30.933 90.1105 31.3273C89.937 31.7059 89.5979 31.974 89.0931 32.1318C88.683 32.2738 88.2807 32.2738 87.8864 32.1318C87.5078 31.974 87.1687 31.6743 86.869 31.2327C86.5219 30.6963 86.1986 30.2783 85.8989 29.9786C85.5992 29.6789 85.2285 29.4739 84.7868 29.3635C84.3609 29.253 83.7773 29.1978 83.0359 29.1978H74.7546V25.625Z" fill="#FFF9EC" style="fill:#FFF9EC;fill:color(display-p3 1.0000 0.9765 0.9255);fill-opacity:1;"/>
</svg>
