<svg width="16" height="16" viewBox="0 0 16 16" fill="none" xmlns="http://www.w3.org/2000/svg">
<path d="M5.57338 0.526614C3.97473 1.0812 2.59606 2.13382 1.63987 3.52987C0.683675 4.92591 0.200366 6.59179 0.26093 8.28282C0.321493 9.97385 0.922737 11.6009 1.97635 12.9249C3.02996 14.249 4.4804 15.2003 6.11463 15.6391C7.43953 15.981 8.82764 15.996 10.1596 15.6829C11.3663 15.4118 12.4819 14.8321 13.3971 14.0004C14.3497 13.1083 15.0412 11.9735 15.3971 10.7179C15.784 9.35245 15.8529 7.91653 15.5984 6.52036H8.15838V9.60661H12.4671C12.381 10.0988 12.1965 10.5687 11.9246 10.9879C11.6527 11.4072 11.2989 11.7672 10.8846 12.0466C10.3585 12.3947 9.76537 12.6288 9.14338 12.7341C8.51956 12.8501 7.8797 12.8501 7.25588 12.7341C6.62361 12.6034 6.0255 12.3424 5.49963 11.9679C4.65481 11.3698 4.02047 10.5203 3.68713 9.54036C3.34815 8.54211 3.34815 7.45987 3.68713 6.46161C3.92441 5.76188 4.31667 5.12478 4.83463 4.59786C5.42737 3.9838 6.17779 3.54486 7.00357 3.32921C7.82935 3.11356 8.69858 3.12953 9.51588 3.37536C10.1543 3.57135 10.7382 3.91379 11.2209 4.37536C11.7067 3.89203 12.1917 3.40745 12.6759 2.92161C12.9259 2.66036 13.1984 2.41161 13.4446 2.14411C12.7078 1.45846 11.843 0.924935 10.8996 0.574114C9.18176 -0.0496488 7.3021 -0.0664119 5.57338 0.526614Z" fill="white" style="fill:white;fill-opacity:1;"></path>
<path d="M5.57445 0.526245C7.30303 -0.067184 9.18269 -0.0508623 10.9007 0.572495C11.8442 0.925699 12.7087 1.46179 13.4445 2.14999C13.1945 2.41749 12.9307 2.66749 12.6757 2.92749C12.1907 3.41166 11.7061 3.89416 11.222 4.37499C10.7393 3.91342 10.1554 3.57098 9.51695 3.37499C8.69992 3.1283 7.83073 3.1114 7.00473 3.32617C6.17873 3.54094 5.42784 3.97907 4.83445 4.59249C4.3165 5.11941 3.92424 5.75652 3.68695 6.45624L1.0957 4.44999C2.02321 2.6107 3.62914 1.20377 5.57445 0.526245Z" fill="#E33629" style="fill:#E33629;fill:color(display-p3 0.8902 0.2118 0.1608);fill-opacity:1;"></path>
<path d="M0.40695 6.4377C0.546226 5.74744 0.777454 5.07898 1.09445 4.4502L3.6857 6.46145C3.34672 7.4597 3.34672 8.54194 3.6857 9.5402C2.82237 10.2069 1.95862 10.8769 1.09445 11.5502C0.300888 9.97059 0.0588654 8.17082 0.40695 6.4377Z" fill="#F8BD00" style="fill:#F8BD00;fill:color(display-p3 0.9725 0.7412 0.0000);fill-opacity:1;"></path>
<path d="M8.15876 6.51855H15.5988C15.8533 7.91472 15.7844 9.35064 15.3975 10.7161C15.0416 11.9717 14.3501 13.1065 13.3975 13.9986C12.5613 13.3461 11.7213 12.6986 10.885 12.0461C11.2996 11.7664 11.6535 11.4059 11.9254 10.9862C12.1973 10.5665 12.3817 10.0962 12.4675 9.60356H8.15876C8.15751 8.57605 8.15876 7.5473 8.15876 6.51855Z" fill="#587DBD" style="fill:#587DBD;fill:color(display-p3 0.3451 0.4902 0.7412);fill-opacity:1;"></path>
<path d="M1.09375 11.55C1.95792 10.8834 2.82167 10.2134 3.685 9.54004C4.01901 10.5203 4.65426 11.3699 5.5 11.9675C6.02751 12.3404 6.62691 12.5992 7.26 12.7275C7.88382 12.8435 8.52368 12.8435 9.1475 12.7275C9.76949 12.6223 10.3626 12.3881 10.8887 12.04C11.725 12.6925 12.565 13.34 13.4012 13.9925C12.4861 14.8247 11.3705 15.4049 10.1637 15.6763C8.83176 15.9894 7.44365 15.9744 6.11875 15.6325C5.07088 15.3528 4.09209 14.8595 3.24375 14.1838C2.34583 13.4709 1.61244 12.5725 1.09375 11.55Z" fill="#319F43" style="fill:#319F43;fill:color(display-p3 0.1922 0.6235 0.2627);fill-opacity:1;"></path>
</svg>